<?xml version="1.0" encoding="UTF-8" standalone="no"?>
<!-- Created with Inkscape (http://www.inkscape.org/) -->

<svg
   version="1.1"
   id="svg1"
   width="135.36"
   height="84.480003"
   viewBox="0 0 135.36 84.480003"
   sodipodi:docname="ML_Draw_1.svg"
   inkscape:version="1.4.4 (dcaf3e7, 2026-05-05)"
   xmlns:inkscape="http://www.inkscape.org/namespaces/inkscape"
   xmlns:sodipodi="http://sodipodi.sourceforge.net/DTD/sodipodi-0.dtd"
   xmlns="http://www.w3.org/2000/svg"
   xmlns:svg="http://www.w3.org/2000/svg">
  <defs
     id="defs1" />
  <sodipodi:namedview
     id="namedview1"
     pagecolor="#ffffff"
     bordercolor="#000000"
     borderopacity="0.25"
     inkscape:showpageshadow="2"
     inkscape:pageopacity="0.0"
     inkscape:pagecheckerboard="0"
     inkscape:deskcolor="#d1d1d1"
     inkscape:zoom="6.501182"
     inkscape:cx="67.603091"
     inkscape:cy="42.223091"
     inkscape:window-width="1547"
     inkscape:window-height="1022"
     inkscape:window-x="166"
     inkscape:window-y="30"
     inkscape:window-maximized="0"
     inkscape:current-layer="g1" />
  <g
     inkscape:groupmode="layer"
     inkscape:label="Image"
     id="g1">
    <path
       style="fill:#0000ff"
       d="m 28.721327,83.173135 c -2.133978,-0.503071 -5.129246,-2.246244 -6.784851,-3.948618 -1.38431,-1.423416 -2.8671,-3.973684 -3.502804,-6.024514 -0.212762,-0.686386 -1.257755,-0.730202 -1.907958,-0.08 -0.373708,0.373708 -1.336355,0.48 -4.347199,0.48 -2.126959,0 -4.1172451,-0.135302 -4.422857,-0.300671 C 7.4500461,73.133963 6.7867276,72.910884 6.2816168,72.803602 5.4171148,72.619986 5.374779,72.536341 5.5600216,71.377897 5.710701,70.4356 5.6410005,70.102811 5.2625458,69.957585 4.6750311,69.732134 3.3301926,66.808852 2.8706623,64.758336 2.5859796,63.488025 2.6305255,63.161432 3.218159,62.210621 3.7349635,61.374413 4.1092372,61.120002 4.8226096,61.120002 h 0.9304115 l -0.1830363,-2.8 C 5.4164511,55.971317 5.5160152,55.02178 6.18769,52.428985 c 1.017822,-3.92899 3.0796925,-9.111687 4.690098,-11.788983 0.68812,-1.144 1.601304,-2.803499 2.029295,-3.687774 0.427992,-0.884275 1.441037,-2.180275 2.251211,-2.88 0.810174,-0.699725 1.474992,-1.399203 1.477375,-1.554396 C 16.647902,31.720907 31.754363,16.482164 36.64,12.338331 38.224,10.994835 40.239185,9.2380756 41.118189,8.4344207 43.294,6.4451212 44.444884,5.9273326 48.040574,5.3200039 56.731926,3.8519944 68.615184,3.7874931 79.84,5.1473992 86.729149,5.9820316 92.298181,7.4148429 97.231776,9.6219888 l 2.351776,1.0521152 -0.161252,1.142948 c -0.15117,1.071491 -0.05333,1.227976 1.56496,2.502949 0.94942,0.748 1.92288,1.36 2.16325,1.36 0.40467,0 6.60949,6.179222 6.60949,6.582231 0,0.224984 6.29293,7.393828 6.72464,7.660635 0.17345,0.107198 0.31536,0.450074 0.31536,0.761946 0,0.311873 0.324,0.740667 0.72,0.952876 0.396,0.212209 2.232,2.483743 4.08,5.047853 1.848,2.56411 4.32012,5.555587 5.4936,6.647726 2.16126,2.011461 3.292,3.714751 3.64812,5.495346 0.16325,0.816221 0.0573,1.070815 -0.63381,1.523677 -0.82144,0.538227 -0.82458,0.555736 -0.31083,1.735712 0.28544,0.655599 1.2919,3.038385 2.23658,5.295078 l 1.71759,4.103079 -0.66178,1.964465 c -0.74548,2.212944 -1.90095,3.684399 -4.06334,5.174578 -1.40116,0.965585 -1.49693,1.129101 -1.88136,3.212 -1.96845,10.665552 -14.4081,15.208145 -22.91836,8.369113 -1.54696,-1.243173 -3.5314,-4.193838 -4.22506,-6.28224 -0.29303,-0.88224 -0.701211,-1.607382 -0.907067,-1.611426 -0.205855,-0.004 -12.25305,-0.0084 -26.771543,-0.0097 l -26.397261,-0.0024 -0.825332,2.037484 c -1.869818,4.615989 -5.085253,7.503562 -9.740147,8.746993 -1.78614,0.47712 -4.817883,0.517365 -6.638673,0.08813 z M 35.118103,82.74567 C 42.109541,80.884438 46.343325,74.573128 45.385525,67.440003 44.815748,63.196643 41.868586,59.200008 37.850648,57.221983 35.785431,56.20528 35.535985,56.160002 32,56.160002 c -3.558932,0 -3.774799,0.03996 -5.926729,1.097214 -5.404485,2.655243 -8.581087,8.575957 -7.617948,14.198725 1.367652,7.984295 9.184532,13.280557 16.66278,11.289729 z M 118.08,82.270532 c 3.48385,-1.318263 6.66361,-4.487747 8.05655,-8.030529 0.92233,-2.345817 0.98879,-6.452716 0.14597,-9.01989 -1.01503,-3.091735 -0.85664,-3.030569 -6.88832,-2.660111 l -5.21013,0.32 -0.85204,1.246057 c -0.46861,0.685331 -1.21203,1.457093 -1.65203,1.715027 -0.69246,0.405929 -0.6805,0.373765 0.089,-0.239273 0.48893,-0.389534 1.10463,-1.125296 1.36822,-1.635027 l 0.47926,-0.926783 -2.00822,0.01141 c -2.62982,0.01495 -8.24692,0.520622 -8.49066,0.764361 -0.105,0.104995 0.2303,0.657397 0.7451,1.227562 l 0.936,1.036662 -1.18622,-1.090065 c -1.34339,-1.234499 -1.50811,-1.182961 -2.9724,0.930013 -0.832675,1.201545 -0.870427,1.415541 -0.746735,4.232789 0.109945,2.504101 0.289665,3.307667 1.151415,5.148077 2.95903,6.319532 10.54802,9.424444 17.03528,6.969715 z M 9.76,72.640003 C 9.6512261,72.464003 8.8867276,72.334357 8.0611146,72.3519 6.8320652,72.378017 6.7049937,72.430233 7.36,72.640003 c 1.1734492,0.375804 2.6322598,0.375804 2.4,0 z m 6.130782,-3.440531 c 0.04093,-3.029988 0.21564,-4.317377 0.900403,-6.634711 0.467291,-1.581384 1.12844,-3.326381 1.469218,-3.877771 C 18.601181,58.135599 18.88,57.605915 18.88,57.509915 c 0,-0.096 -0.600669,-0.616283 -1.33482,-1.156184 l -1.33482,-0.981637 -1.71514,1.895292 c -2.145888,2.371282 -4.338846,3.485052 -7.8495451,3.986664 -2.4032661,0.343381 -2.6745328,0.456786 -3.1855344,1.331742 -0.4965091,0.850141 -0.5119746,1.132928 -0.1392013,2.545304 0.6471775,2.45205 1.3734906,3.634223 2.3648812,3.849166 1.4814049,0.321183 2.3296713,0.867202 3.3514268,2.157273 1.2343368,1.558478 1.7882258,1.777187 4.5627528,1.801654 l 2.24,0.01975 z m 2.121043,1.273474 c -0.633669,-6.988218 4.697222,-13.667992 11.854435,-14.853981 2.728867,-0.452188 5.855213,0.05308 8.497155,1.373272 2.10404,1.051401 5.039468,3.936441 6.079571,5.975212 0.96626,1.894025 1.721159,5.40134 1.55173,7.209446 l -0.144015,1.536893 0.993971,-0.09689 0.99397,-0.09689 -0.104612,-2.56 C 47.354009,59.66034 43.602747,53.981512 36.39314,51.791661 c -2.867606,-0.871008 -7.167023,-0.718816 -9.936893,0.35175 -4.154174,1.605606 -7.847111,5.548687 -9.151305,9.771174 -0.84531,2.736796 -1.423249,7.221072 -1.158338,8.987631 0.194175,1.294852 0.29152,1.417787 1.122659,1.417787 H 18.17931 Z M 8.32,71.7852 c 0,-0.453277 -1.0846904,-1.385197 -1.612274,-1.385197 -0.304195,0 -0.6262877,0.279939 -0.7157615,0.622088 -0.125883,0.481377 0.028532,0.651484 0.682678,0.752053 C 8.1633232,72.003015 8.32,72.004068 8.32,71.7852 Z m 41.791195,-1.945197 c 0.186027,-1.512001 0.298886,-1.853457 0.376197,-1.138189 0.09905,0.91644 0.228897,1.031936 1.259118,1.12 0.748272,0.06396 1.271515,0.321278 1.501082,0.738189 0.193824,0.352 0.382029,0.69362 0.418231,0.759156 0.0362,0.06554 1.692203,-0.492562 3.68,-1.240218 4.629356,-1.741207 11.013664,-3.339517 15.294177,-3.828893 1.848,-0.211276 4.008,-0.531423 4.8,-0.711439 0.792,-0.180015 3.790906,-0.447263 6.664234,-0.593884 2.873329,-0.14662 5.395155,-0.408435 5.604059,-0.581809 0.208903,-0.173374 2.376139,-0.395403 4.81608,-0.493396 2.439941,-0.09799 5.14057,-0.2716 6.001397,-0.385793 l 1.56514,-0.207624 -0.20197,-1.522585 c -0.48512,-3.657022 1.94879,-6.745096 5.65074,-7.169486 1.40254,-0.160787 1.3,-0.113201 -1.06388,0.493724 -2.64064,0.67798 -4.66676,3.690371 -4.30354,6.398396 0.0975,0.726739 0.2966,1.423944 0.44249,1.549344 0.18792,0.161529 10.33694,-0.386115 11.22525,-0.605716 0.044,-0.01088 0.0967,-0.271778 0.11712,-0.579778 0.0324,-0.488605 0.0568,-0.483029 0.19189,0.04374 0.13922,0.543119 0.38028,0.584832 2.40077,0.415442 1.2353,-0.103564 2.31875,-0.261042 2.40766,-0.349953 0.0889,-0.08891 -0.23313,-1.13986 -0.71565,-2.335442 C 116.16838,54.476325 113.28,46.598276 113.28,46.080527 c 0,-0.962274 0.72455,-1.248833 4.98692,-1.972325 2.27319,-0.385851 4.19685,-0.751811 4.27478,-0.813243 0.0779,-0.06143 -0.65363,-0.935928 -1.62571,-1.943326 -0.97208,-1.007397 -2.50229,-2.839631 -3.40047,-4.071632 -0.89817,-1.232 -2.42387,-3.016483 -3.39044,-3.965518 l -1.75739,-1.725519 -15.623843,0.214678 C 88.150731,31.921715 79.608,32.082876 77.76,32.161776 c -1.848,0.0789 -8.904,0.220036 -15.68,0.313634 -6.776,0.0936 -14.576516,0.25882 -17.33448,0.367161 l -5.01448,0.196983 0.01917,1.000224 c 0.01054,0.550123 -0.08556,1.308259 -0.213564,1.684746 -0.219669,0.646102 -0.145842,0.678151 1.315313,0.570993 2.572029,-0.188627 3.248893,0.292259 2.138448,1.519287 -0.485359,0.536317 -1.1785,0.585198 -8.29821,0.585198 H 26.92358 l -0.74179,1.035496 c -0.407984,0.569522 -0.899217,1.325522 -1.091628,1.68 -0.19241,0.354477 -0.66041,1.188884 -1.04,1.854237 -0.379589,0.665353 -0.690162,1.259776 -0.690162,1.32094 0,0.06116 0.792,0.59121 1.76,1.177879 1.89879,1.150787 2.017963,1.38075 1.269392,2.449485 l -0.490608,0.700441 -1.73402,-1.109239 c -0.953711,-0.610081 -1.871136,-1.109239 -2.038722,-1.109239 -0.267942,0 -3.087827,4.089406 -5.103188,7.400659 l -0.706423,1.160658 1.041784,0.782015 c 1.820792,1.366777 1.778792,1.37109 3.510321,-0.360439 C 23.906125,52.345306 27.666312,50.795791 32,50.795791 c 5.377029,0 10.214606,2.529464 13.099311,6.849344 1.72669,2.585739 2.480278,5.190758 2.948846,10.193636 0.370466,3.955449 0.424543,4.161232 1.093512,4.161232 0.629275,0 0.731904,-0.228647 0.969526,-2.16 z M 50.56,66.568581 c 0,-0.462318 0.1728,-1.013378 0.384,-1.224578 0.420047,-0.420047 1.558977,-0.529523 1.498105,-0.144 -0.132545,0.839456 0.08429,1.689098 0.383824,1.503975 0.190261,-0.117588 0.259517,-0.558086 0.153903,-0.978886 -0.133026,-0.53002 -0.05631,-0.765089 0.249697,-0.765089 0.297161,0 0.392284,0.258615 0.29066,0.790227 -0.190874,0.998493 -0.614254,1.332345 -1.920189,1.514148 -0.946132,0.131714 -1.04,0.06891 -1.04,-0.695797 z m 1.6,-0.328578 c 0,-0.176 -0.144,-0.32 -0.32,-0.32 -0.176,0 -0.32,0.144 -0.32,0.32 0,0.176 0.144,0.32 0.32,0.32 0.176,0 0.32,-0.144 0.32,-0.32 z m 5.76,-1.451259 c 0,-0.398256 0.125897,-0.423881 0.665005,-0.135359 0.365753,0.195745 0.846812,0.286134 1.069019,0.200865 0.222208,-0.08527 0.606955,-0.02656 0.854995,0.130459 0.301446,0.19083 -0.05302,0.287118 -1.069019,0.290394 -1.155388,0.0037 -1.52,-0.112942 -1.52,-0.486359 z m 56.34526,-4.175408 c 0.0154,-0.372782 0.0912,-0.448608 0.19334,-0.193334 0.0924,0.231 0.0811,0.507 -0.0253,0.613334 -0.10633,0.106333 -0.18196,-0.08267 -0.16807,-0.42 z m -0.45304,-1.712223 c -0.24542,-1.227134 -2.43226,-3.425492 -3.79987,-3.819901 -0.57879,-0.166919 -0.7932,-0.316476 -0.47646,-0.33235 0.89576,-0.04489 2.27226,0.788144 3.37198,2.040662 0.95086,1.082964 1.59252,2.576757 1.25278,2.916492 -0.0859,0.08591 -0.24271,-0.276291 -0.34843,-0.804903 z M 28.48,48.320002 c 0.188385,-0.352 0.414518,-0.64 0.502518,-0.64 0.088,0 0.0059,0.288 -0.182518,0.64 -0.188385,0.352 -0.414517,0.64 -0.502517,0.64 -0.088,0 -0.0059,-0.288 0.182517,-0.64 z m 68.835606,22.320001 c 0.378737,-0.748 1.325327,-2.348337 2.103533,-3.556304 0.778211,-1.207967 1.362461,-2.248764 1.298341,-2.312882 -0.0641,-0.06412 -1.33178,0.02313 -2.817028,0.193875 -1.485248,0.17075 -2.952452,0.311546 -3.260452,0.312882 -0.311616,0.0014 -0.56,0.242457 -0.56,0.54359 0,0.485499 -0.04114,0.48988 -0.4,0.04259 C 93.319184,65.41403 92.355265,65.454061 83.84,66.272402 70.234397,67.57994 63.939103,68.7499 58.381312,71.003815 L 56.8,71.645103 l 18.773334,0.01745 c 14.732421,0.01369 18.808075,-0.06865 18.934737,-0.38255 0.09642,-0.238957 0.171574,-0.17454 0.186666,0.16 0.01815,0.402388 0.293625,0.56 0.97876,0.56 0.800409,0 1.064055,-0.218353 1.642109,-1.36 z m -2.853222,-0.72 c 0.0065,-0.528 0.07824,-0.70526 0.159373,-0.39391 0.08113,0.31135 0.0758,0.74335 -0.01186,0.96 -0.08765,0.21665 -0.154037,-0.03809 -0.147516,-0.56609 z m -0.32,-2.24 c 0.0065,-0.528 0.07824,-0.70526 0.159373,-0.39391 0.08113,0.31135 0.0758,0.74335 -0.01186,0.96 -0.08765,0.21665 -0.154037,-0.03809 -0.147516,-0.56609 z m -42.311651,3.692499 c 0.258903,-0.163735 0.359073,-0.40936 0.222601,-0.545833 -0.136473,-0.136472 -0.393736,-0.0363 -0.571695,0.222601 -0.242651,0.353018 -0.270583,0.28333 -0.111701,-0.278682 0.172901,-0.611598 0.103196,-0.728692 -0.379038,-0.636731 -0.809315,0.154335 -1.002045,1.547885 -0.213156,1.541246 0.320241,-0.0027 0.794086,-0.138866 1.052989,-0.302601 z M 53.12,71.040003 c 0,-0.352 -0.144,-0.64 -0.32,-0.64 -0.176,0 -0.32,0.288 -0.32,0.64 0,0.352 0.144,0.64 0.32,0.64 0.176,0 0.32,-0.288 0.32,-0.64 z m 4.053471,-0.02682 c 2.143948,-0.924413 8.462084,-2.719279 11.723337,-3.330383 1.493568,-0.27987 6.128268,-0.852466 10.299332,-1.272437 4.171064,-0.419971 7.666277,-0.846108 7.76714,-0.946971 0.549062,-0.549062 -13.71828,0.914462 -18.80328,1.928814 -3.922738,0.782505 -10.648876,2.834993 -12.395913,3.782626 -1.314269,0.712891 -0.366883,0.60423 1.409384,-0.161649 z m 42.104644,-0.853177 c -0.0898,-0.836 -0.206064,-1.569955 -0.258368,-1.63101 C 98.888887,68.376239 97.6,70.934737 97.6,71.347255 c 0,0.183011 0.414312,0.332748 0.920693,0.332748 0.907951,0 0.918432,-0.02103 0.757422,-1.52 z M 6.48,69.548073 c -0.22,-0.08877 -0.58,-0.08877 -0.8,0 -0.22,0.08877 -0.04,0.161403 0.4,0.161403 0.44,0 0.62,-0.07263 0.4,-0.161403 z m 122.09909,-4.06063 c 0.16463,-2.585374 -0.23514,-3.407441 -1.65701,-3.407441 -0.58048,0 -1.13841,0.083 -1.23985,0.184441 -0.10145,0.101442 0.1497,0.929442 0.55811,1.84 0.4084,0.910558 0.84269,2.283129 0.96508,3.050158 0.20373,1.276798 0.26566,1.351468 0.73313,0.883992 0.32444,-0.324435 0.55799,-1.25461 0.64054,-2.55115 z m 2.43949,0.959602 c 0.62778,-0.766126 1.14142,-1.558126 1.14142,-1.76 0,-0.780219 -0.59581,-0.297122 -1.71796,1.392958 -1.39423,2.099853 -1.03222,2.330318 0.57654,0.367042 z m -0.56721,-1.007661 c 0.49975,-0.79103 1.13879,-1.438495 1.42009,-1.438809 0.29823,-3.34e-4 0.71848,-0.527587 1.00803,-1.264717 0.47742,-1.215405 0.47004,-1.281535 -0.19146,-1.715183 -0.37842,-0.248071 -0.88831,-1.011206 -1.1331,-1.695856 -0.24478,-0.684649 -1.07067,-2.714547 -1.8353,-4.510884 -0.76463,-1.796337 -1.31583,-3.459957 -1.2249,-3.696934 0.0909,-0.236977 0.59283,-0.683388 1.11531,-0.992024 0.93207,-0.550591 1.18617,-1.000208 0.70996,-1.256237 -0.132,-0.07097 -1.752,0.05353 -3.6,0.276664 -5.12546,0.618865 -6.25896,0.579228 -7.02753,-0.245742 -0.35886,-0.385187 -0.65247,-0.945161 -0.65247,-1.244387 0,-0.628124 0.44035,-0.726363 5.76,-1.285009 2.024,-0.212552 3.79853,-0.490545 3.9434,-0.617762 0.33662,-0.295603 -2.39709,-2.552502 -3.09176,-2.552502 -0.28735,0 -1.13652,0.146652 -1.88705,0.325894 -0.75052,0.179242 -3.16459,0.618552 -5.36459,0.976244 -2.2,0.357691 -4.20199,0.850177 -4.44888,1.094412 -0.38468,0.380561 -0.1684,1.190492 1.51246,5.663757 1.07874,2.870831 2.45716,6.443693 3.06315,7.939693 l 1.10181,2.72 4.13095,-0.111917 c 5.09821,-0.138123 5.20051,-0.0753 5.20051,3.19366 0,1.262724 0.12683,2.157644 0.29137,2.055952 0.16025,-0.09904 0.70025,-0.827283 1.2,-1.618313 z M 97.821249,64.593127 C 99.811562,64.391345 101.44,64.091903 101.44,63.927701 c 0,-0.164202 -0.396,-0.222641 -0.88,-0.129865 -0.484,0.09278 -2.082162,0.26446 -3.551473,0.381518 -1.46931,0.117058 -3.05331,0.328214 -3.52,0.469236 -0.847128,0.25598 -0.847239,0.256448 -0.06728,0.283908 0.429687,0.01513 2.409687,-0.13759 4.4,-0.339371 z M 10.665251,59.720805 c 2.329404,-1.139671 3.69794,-2.550998 6.192937,-6.386575 3.832124,-5.891152 4.544797,-7.166652 4.372478,-7.825604 -0.09091,-0.347635 -1.088999,-1.17227 -2.217978,-1.832522 C 17.88371,43.015853 16.96,42.278627 16.96,42.037824 c 0,-0.680314 0.564898,-0.529783 2.56,0.682178 2.606482,1.583354 3.130784,1.503259 4.581695,-0.699923 l 1.198514,-1.819922 -0.890104,-0.736605 C 23.083326,38.365577 22.465348,38.291716 17.173201,38.598585 L 12.32,38.880002 11.010188,41.188513 C 9.3580844,44.100306 7.6039001,48.557182 6.5659649,52.480002 5.7521728,55.555686 5.5998896,57.388183 5.9712715,59.636237 l 0.2042278,1.236235 1.3875875,-0.156401 c 0.7631731,-0.08602 2.1591468,-0.53389 3.1021642,-0.995266 z M 16.56,39.468072 c 0.22,-0.08877 0.58,-0.08877 0.8,0 0.22,0.08877 0.04,0.161403 -0.4,0.161403 -0.44,0 -0.62,-0.07263 -0.4,-0.161403 z m 115.23636,18.335567 c -0.55181,-1.354854 -1.05549,-2.411169 -1.1193,-2.347368 -0.0638,0.0638 0.22236,0.968242 0.63591,2.009867 0.41354,1.041625 0.8487,2.166475 0.967,2.499665 0.1183,0.333191 0.28363,0.537267 0.36739,0.453504 0.0838,-0.08376 -0.29918,-1.260815 -0.851,-2.615668 z m -2.01416,-4.714068 c -0.43193,-0.951263 -0.79363,-1.612264 -0.80377,-1.468891 -0.0276,0.390552 1.32996,3.457603 1.46893,3.318629 0.0661,-0.06609 -0.23323,-0.898476 -0.66516,-1.849738 z m -2.7136,-4.464251 c 0.70492,-0.177537 0.18486,-0.201141 -1.4686,-0.06666 -4.21747,0.343027 -4.44537,0.320282 -4.79588,-0.47866 -0.17374,-0.396 -0.56974,-0.72 -0.88,-0.72 -0.70015,0 -0.71049,0.288628 -0.0444,1.239625 0.49856,0.711792 0.63337,0.733034 3.3086,0.521298 1.53388,-0.121402 3.27999,-0.344424 3.88026,-0.495605 z M 122.88,48.000002 c 0,-0.176 -0.36,-0.32 -0.8,-0.32 -0.44,0 -0.8,0.144 -0.8,0.32 0,0.176 0.36,0.32 0.8,0.32 0.44,0 0.8,-0.144 0.8,-0.32 z m 3.42667,0 c 0.47403,0 0.73528,-0.154161 0.65736,-0.387911 -0.12389,-0.371669 -2.93865,-0.404433 -3.52661,-0.04105 -0.57151,0.353211 0.23301,0.798877 1.12139,0.6212 0.52865,-0.105731 1.31519,-0.192238 1.74786,-0.192238 z M 26.366802,47.491124 c 0.275257,-0.717309 0.08547,-0.922705 -1.904812,-2.061426 -3.049723,-1.744875 -3.855155,-0.448786 -0.86199,1.387101 2.10186,1.289197 2.494164,1.384809 2.766802,0.674325 z M 128.32,47.360002 c 0,-0.176 -0.144,-0.32 -0.32,-0.32 -0.176,0 -0.32,0.144 -0.32,0.32 0,0.176 0.144,0.32 0.32,0.32 0.176,0 0.32,-0.144 0.32,-0.32 z m 1.44,0 c 0.10877,-0.176 -0.0267,-0.32 -0.30111,-0.32 -0.27439,0 -0.49889,0.144 -0.49889,0.32 0,0.176 0.1355,0.32 0.30112,0.32 0.16561,0 0.39011,-0.144 0.49888,-0.32 z m -109.92,-4 c -0.968,-0.60805 -1.904,-1.106372 -2.08,-1.107382 -0.176,-0.001 0.184,0.30559 0.8,0.681333 0.616,0.375743 1.408,0.869764 1.76,1.097824 0.352,0.228061 0.784,0.418956 0.96,0.424213 0.176,0.0053 -0.472,-0.487939 -1.44,-1.095988 z m 105.6,-0.703345 c 0,-0.08289 -0.62461,-0.966545 -1.38803,-1.963681 -0.76342,-0.997136 -2.48869,-3.344521 -3.83394,-5.216412 -1.34525,-1.87189 -2.67641,-3.49189 -2.95814,-3.6 -0.28173,-0.108109 -1.30797,-0.196563 -2.28053,-0.196563 h -1.7683 l 1.79891,1.943034 c 0.9894,1.068668 2.56674,2.976668 3.50521,4.24 0.93846,1.263332 2.42009,2.960192 3.2925,3.770801 1.35269,1.256872 1.7368,1.45173 2.60926,1.32368 0.56268,-0.08259 1.02306,-0.217971 1.02306,-0.300859 z M 25.856,39.296002 c 0.6496,-0.6496 0.43356,-0.896 -0.785596,-0.896 -1.149327,0 -1.159558,0.01109 -0.590404,0.64 0.673316,0.744005 0.854319,0.77768 1.376,0.256 z m 1.227553,-2.399114 c -0.131093,-0.131094 -0.372317,-0.02652 -0.536052,0.232381 -0.492695,0.779063 -0.344911,1.125286 0.233452,0.546923 0.297523,-0.297524 0.433694,-0.648211 0.3026,-0.779304 z m 1.489167,0.543113 c 0.107271,-0.410207 0.0098,-0.64 -0.271419,-0.64 -0.241331,0 -0.592916,0.288 -0.781301,0.64 -0.287195,0.53663 -0.243357,0.640001 0.271419,0.640001 0.344816,0 0.687302,-0.280547 0.781301,-0.640001 z m -13.288989,0.100135 c -0.305948,-0.08009 -0.881948,-0.083 -1.28,-0.0065 -0.398052,0.07654 -0.147731,0.142073 0.556269,0.145625 0.704,0.0036 1.029679,-0.05907 0.723731,-0.139167 z m 5.285925,-0.01397 c -0.74269,-0.06711 -2.03869,-0.06791 -2.880001,-0.0018 -0.84131,0.06614 -0.233655,0.121046 1.350345,0.122021 1.584,9.75e-4 2.272345,-0.05314 1.529656,-0.120248 z m 4.474744,0.0086 c -0.39358,-0.07596 -1.11358,-0.07792 -1.6,-0.0044 -0.48642,0.07355 -0.1644,0.1357 0.7156,0.138102 0.88,0.0024 1.27798,-0.05778 0.8844,-0.133733 z m 16.479331,-0.314608 c -0.305948,-0.08009 -0.881948,-0.083 -1.28,-0.0065 -0.398052,0.07654 -0.147731,0.142073 0.556269,0.145625 0.704,0.0036 1.029679,-0.05907 0.723731,-0.139167 z M 30.48,32.16894 c 1.54,-2.347926 2.8,-4.486675 2.8,-4.752776 0,-0.912869 0.398671,-1.52041 1.305378,-1.989286 0.499301,-0.258199 1.757666,-1.585856 2.796366,-2.950349 1.0387,-1.364492 3.370545,-4.279913 5.181878,-6.478712 1.811333,-2.198799 3.489958,-4.467029 3.730276,-5.040511 C 46.876182,9.5677775 46.549901,8.4669057 45.265406,7.4871736 44.257127,6.7181217 44.160478,6.7033178 43.243547,7.1774814 41.837734,7.9044556 41.70601,8.331981 42.671209,9.0350791 43.138044,9.3751449 43.52,9.8708336 43.52,10.136609 c 0,0.265776 -1.382918,1.945766 -3.07315,3.733311 -1.690233,1.787544 -4.894233,5.410081 -7.12,8.050081 -4.950223,5.871498 -7.473817,8.395378 -9.160602,9.161638 -0.926115,0.420708 -2.070211,0.586274 -4.086248,0.591334 -2.565508,0.0064 -2.8,0.05957 -2.8,0.634412 0,0.345061 -0.18,0.769833 -0.4,0.943938 -1.52704,1.20848 -3.12,2.706666 -3.12,2.934372 0,0.149172 3.132,0.266943 6.96,0.261712 l 6.96,-0.0095 z m 6,4.009947 c 0,-0.165613 -0.144,-0.390112 -0.32,-0.498886 -0.176,-0.108774 -0.32,-0.765272 -0.32,-1.458885 v -1.261115 h -2.704627 -2.704627 l -0.920916,1.36 c -0.506504,0.748 -1.02592,1.54 -1.154258,1.76 -0.181711,0.311493 0.691318,0.4 3.945543,0.4 2.397861,0 4.178885,-0.128333 4.178885,-0.301114 z m 2.36058,-0.43049 c 0.423868,-0.30994 0.537773,-0.764412 0.461161,-1.84 L 39.2,32.480001 37.940543,32.55732 c -1.366563,0.0839 -1.768061,0.458675 -1.775643,1.657484 -0.0098,1.550764 1.482479,2.406083 2.67568,1.533593 z M 34.32,31.81326 c -0.572,-0.450805 -1.04,-1.073208 -1.04,-1.383118 0,-1.016821 -0.405476,-0.998402 -1.19223,0.05416 -1.636169,2.188944 -1.650529,2.156099 0.940971,2.152155 L 35.36,32.632904 Z m 50.8,-0.163224 c 10.296,-0.194723 18.77379,-0.405429 18.83953,-0.468237 0.0657,-0.06281 0.0263,-0.357194 -0.0877,-0.654191 -0.19228,-0.501073 -1.45799,-0.524862 -17.559533,-0.330032 -16.853284,0.203926 -21.782681,0.3043 -34.756955,0.707735 -5.65936,0.175978 -6.263991,0.250191 -6.88,0.844464 L 44,32.401306 55.2,32.202691 c 6.16,-0.109238 19.624,-0.357933 29.92,-0.552655 z M 36.8,28.800001 v -3.2 h -0.821037 c -1.75167,0 -2.058963,0.452681 -2.058963,3.033114 0,2.086949 0.0851,2.4302 0.711202,2.868741 0.391161,0.27398 1.039161,0.498145 1.44,0.498145 0.709811,0 0.728798,-0.08337 0.728798,-3.2 z m 7.43375,2.727722 c 1.322087,-0.552465 1.413275,-4.62146 0.121883,-5.438646 C 43.94672,25.830319 42.416734,25.617812 40.48,25.550771 l -3.2,-0.11077 -0.09166,3.322465 -0.09166,3.322465 3.291664,-0.162906 c 1.810415,-0.0896 3.540851,-0.267034 3.845413,-0.394302 z M 24.16,30.59385 c 1.786116,-0.848292 3.008532,-2.066597 7.900414,-7.873849 1.853224,-2.2 5.143645,-5.92892 7.312047,-8.286489 l 3.942548,-4.286489 -0.732955,-0.5935114 c -0.403126,-0.3264312 -0.85246,-0.5935112 -0.998521,-0.5935112 -0.455867,0 -5.107942,3.8681086 -8.295124,6.8972326 -1.676625,1.593478 -3.298603,3.105478 -3.604395,3.36 C 28.440339,20.25239 18.56,30.761922 18.56,31.049638 c 0,0.1707 0.9,0.308957 2,0.307237 1.43775,-0.0022 2.4498,-0.216752 3.6,-0.763025 z m 87.36383,0.389749 c 0.28069,-0.28168 -3.69516,-5.142829 -5.67058,-6.933252 -0.84329,-0.76431 -1.53325,-1.578761 -1.53325,-1.809891 0,-0.56338 -7.038994,-7.238848 -7.398661,-7.016561 -0.155395,0.09604 -0.413972,-0.171084 -0.574616,-0.593608 C 96.18608,14.207763 95.466349,13.18234 94.747322,12.351569 94.028295,11.520798 93.44,10.737875 93.44,10.61174 c 0,-0.126135 0.226299,-0.552421 0.502885,-0.9473043 C 94.427628,8.9723678 94.404771,8.9293365 93.309267,8.4716059 91.310306,7.6363864 85.697037,6.3464219 84.915312,6.5426223 84.105458,6.7458829 83.90414,7.2954 84.56,7.5124813 c 0.22,0.072817 1.594477,0.4458207 3.054394,0.8288967 1.459916,0.3830761 2.589945,0.7609502 2.511175,0.8397203 -0.07877,0.07877 -1.921247,-0.2971168 -4.094393,-0.8353042 C 76.195978,5.9100729 65.190697,5.1389462 54.331967,6.1246692 50.858274,6.4400006 50.16073,6.4254289 49.55755,6.0249321 48.998802,5.6539378 48.477975,5.6181055 47.065583,5.8534879 44.950101,6.2060442 44.487666,6.5303265 45.402333,7.0198414 46.183233,7.4377665 47.04,8.9534628 47.04,9.9170186 c 0,0.6607964 0.06032,0.6657744 5.04,0.4158914 2.772,-0.1391 9.72,-0.235896 15.44,-0.215102 10.054791,0.03655 10.502171,0.0648 13.478044,0.850925 6.160401,1.627374 10.645397,4.441371 15.851536,9.945648 2.539441,2.684866 7.21872,8.777358 7.69537,10.019487 0.15193,0.395929 0.77115,0.462586 3.47406,0.37397 1.80905,-0.05931 3.38622,-0.205218 3.50482,-0.324239 z m -10.25134,-11.223598 -2.55249,-2.64 2.64,2.552493 c 2.45195,2.370677 2.78589,2.727507 2.55249,2.727507 -0.0481,0 -1.23613,-1.188 -2.64,-2.64 z m 15.20751,11.024 c 0,-0.662096 -0.92738,-1.024 -2.624,-1.024 -1.0208,0 -1.856,0.06022 -1.856,0.133828 0,0.904491 0.51328,1.146172 2.43424,1.146172 1.12517,0 2.04576,-0.1152 2.04576,-0.256 z M 61.312516,30.199326 66.145031,30.01707 66.352516,26.158295 C 66.466632,24.035969 66.56,19.923322 66.56,17.01908 v -5.280439 l -7.490848,0.209536 c -4.119966,0.115245 -7.683966,0.291751 -7.92,0.392236 -0.601252,0.255966 -10.172553,12.52952 -9.94689,12.755183 0.101422,0.101423 0.808405,0.184405 1.571072,0.184405 0.946739,0 1.584047,0.197381 2.008818,0.622151 0.709533,0.709534 1.138814,2.532948 0.858893,3.648239 -0.104165,0.415028 -0.0978,0.846192 0.01415,0.958141 0.192664,0.192664 4.721842,0.10322 15.657318,-0.309206 z M 67.31241,21.040001 C 67.44353,15.256381 67.403241,12.16 67.196864,12.16 66.995212,12.16 66.88,15.437246 66.88,21.173334 c 0,4.957334 0.052,8.953334 0.115545,8.880001 0.06355,-0.07333 0.206139,-4.129334 0.316865,-9.013334 z m 29.582014,8.583217 c 2.163932,-0.05797 4.013976,-0.184954 4.111216,-0.28219 0.2919,-0.291898 -3.64059,-5.244272 -6.248994,-7.869665 -6.725667,-6.769474 -12.203719,-9.162254 -21.82666,-9.533756 l -4.990015,-0.192644 -0.183168,8.921468 c -0.100742,4.906808 -0.110992,9.038251 -0.02278,9.180986 0.138967,0.224854 17.331946,0.09267 29.160398,-0.224199 z M 102.72,29.147711 c 0,-0.542762 -3.804976,-5.42891 -6.15068,-7.898376 -4.9049,-5.163687 -9.764725,-8.28802 -15.12932,-9.726488 -3.252872,-0.872229 -8.288901,-1.159593 -18.56,-1.059062 -11.88828,0.116359 -17.334504,0.628378 -16.419249,1.543633 0.09795,0.09795 3.082625,0.01267 6.632619,-0.189498 3.596733,-0.204832 10.592578,-0.301203 15.800582,-0.21766 8.25992,0.132499 9.643553,0.229895 11.906048,0.838081 3.160037,0.849456 7.108834,2.720977 9.44,4.474061 2.705614,2.034677 7.19851,6.622445 9.526438,9.727599 1.854612,2.473818 2.953562,3.406874 2.953562,2.50771 z m 12.16,0.08791 c 0,-0.293045 -3.28826,-4.263324 -4.4429,-5.364407 -0.86382,-0.823756 -1.03859,-0.878035 -1.54553,-0.48 -0.52506,0.412264 -0.53442,0.401514 -0.11505,-0.13211 0.41617,-0.529541 0.24042,-0.797003 -1.98795,-3.025377 -1.34447,-1.344465 -2.54967,-2.339296 -2.67823,-2.210736 -0.12856,0.128559 0.61618,1.092626 1.65497,2.142369 1.48396,1.499613 1.80522,1.992106 1.49915,2.298182 -0.30608,0.306076 -0.75119,0.03242 -2.07707,-1.276993 -2.63206,-2.599362 -2.79673,-1.956669 -0.22859,0.892122 1.26864,1.40727 2.45814,2.465021 2.64335,2.350557 0.19287,-0.1192 0.2424,-0.05547 0.11592,0.14917 -0.12191,0.197253 0.6033,1.366055 1.61909,2.609443 l 1.83989,2.252158 h 1.85148 c 1.01831,0 1.85147,-0.09197 1.85147,-0.204378 z M 44.16,19.010652 c 2.552,-3.258571 4.688,-6.061019 4.746667,-6.227663 C 48.965334,12.616345 48.355627,12.48 47.551762,12.48 h -1.461571 l -3.127605,3.760001 c -1.720182,2.068 -3.835008,4.696 -4.699613,5.84 -0.864605,1.144 -1.709108,2.26 -1.876673,2.48 -0.234951,0.308472 0.08872,0.397177 1.414518,0.387662 L 39.52,24.935326 Z m -0.596182,2.013762 c 5.887288,-7.453878 6.780317,-8.632391 6.447579,-8.508731 -0.183982,0.06837 -2.315667,2.644318 -4.737079,5.724318 -2.421412,3.08 -4.621029,5.852 -4.888039,6.16 -0.267009,0.308 -0.355153,0.552986 -0.195875,0.544413 0.159278,-0.0086 1.677314,-1.772572 3.373414,-3.92 z M 105.44,20.480001 c -0.86677,-0.88 -1.6994,-1.6 -1.85029,-1.6 -0.26794,0 2.9855,3.163665 3.27826,3.187801 0.0814,0.0067 -0.5612,-0.707801 -1.42797,-1.587801 z m -3.58664,-4.227339 c -1.73806,-1.756388 -1.84576,-1.813932 -2.420895,-1.293443 -0.582051,0.526749 -0.543525,0.600835 1.167465,2.245049 1.59207,1.529939 1.83467,1.659551 2.4209,1.293442 0.62392,-0.389643 0.57445,-0.484761 -1.16747,-2.245048 z M 98.88,14.880001 c 0.432414,-0.521027 0.328982,-0.586156 -0.453828,-0.285764 -0.278394,0.10683 -0.506172,0.32283 -0.506172,0.48 0,0.442635 0.518512,0.337724 0.96,-0.194236 z m -0.144429,-1.834879 c -0.433379,-0.618735 -0.428549,-0.748786 0.04734,-1.27464 0.648464,-0.716544 0.448086,-0.927382 -1.779632,-1.8725344 -1.268211,-0.5380633 -1.85343,-0.6422663 -2.24,-0.3988505 -0.961627,0.6055179 -0.745709,1.3819389 0.918546,3.3030139 l 1.651738,1.906625 0.942312,-0.487289 c 0.884572,-0.457429 0.91274,-0.529509 0.459693,-1.176325 z M 83.955721,6.5600003 c 0.101306,-0.264 0.152713,-0.4811505 0.114236,-0.4825565 -0.03848,-0.00141 -1.760528,-0.213442 -3.826782,-0.4711909 -7.691657,-0.9594736 -16.116337,-1.282401 -22.771976,-0.8728752 -6.150873,0.3784672 -8.048714,0.6813702 -7.272985,1.160797 0.213198,0.1317641 1.929818,0.072845 3.81471,-0.1309308 6.81518,-0.7367901 19.216519,-0.3530447 25.451498,0.7875678 3.180968,0.5819189 4.270666,0.5841483 4.491299,0.00919 z"
       id="path1" />
  </g>
</svg>
